# xmcd
#
# Track frame offsets:
# 150
# 20885
# 45035
# 64235
# 83135
#
# Disc length: 1390 seconds
#
# Revision: 0
# Processed by: cddbd v1.4PL0 Copyright (c) Steve Scherf et al.
# Submitted via: MacMP3 Pro 5.0 (http://mp3.act2.co.jp/)
#
DISCID=36056c05
DTITLE=THE MICETEETH - Constant Music
DYEAR=1900
DGENRE=
TTITLE0=oldman silence
TTITLE1=Ët«√Â?
TTITLE2=paradise bucci
TTITLE3=…S…≈…Ï…l…x…e…B
TTITLE4=…g…„…L…b…V…÷…R…„…g
EXTD=
EXTT0=
EXTT1=
EXTT2=
EXTT3=
EXTT4=
PLAYORDER=
